<!DOCTYPE svg PUBLIC "-//W3C//DTD SVG 20010904//EN" "http://www.w3.org/TR/2001/REC-SVG-20010904/DTD/svg10.dtd">
<svg version="1.0" xmlns="http://www.w3.org/2000/svg" width="414px" height="381px" viewBox="0 0 4140 3810" preserveAspectRatio="xMidYMid meet">
<g id="layer101" fill="#000000" stroke="none">
 <path d="M1645 3330 c-33 -66 -62 -116 -66 -112 -4 4 -14 43 -23 87 -9 44 -22 86 -30 93 -16 17 -46 5 -46 -19 0 -32 60 -293 69 -302 25 -25 48 2 108 123 35 69 63 123 64 120 36 -170 45 -195 67 -198 13 -2 25 3 28 13 7 16 -38 249 -56 293 -6 14 -18 22 -33 22 -19 0 -32 -19 -82 -120z"/>
 <path d="M2275 3418 c-3 -13 -18 -80 -35 -150 -16 -70 -27 -134 -24 -142 7 -19 135 -50 172 -41 51 11 77 49 77 110 0 64 -27 100 -84 110 -57 10 -61 15 -50 64 12 55 7 71 -25 71 -18 0 -27 -7 -31 -22z m117 -184 c13 -9 9 -56 -7 -74 -13 -14 -23 -15 -58 -7 l-43 9 10 48 9 47 40 -9 c22 -5 44 -11 49 -14z"/>
 <path d="M1253 3310 c-64 -30 -83 -43 -83 -59 0 -23 106 -260 126 -280 11 -13 25 -9 98 23 93 42 110 55 100 80 -9 22 -34 20 -100 -9 -31 -14 -58 -25 -59 -25 -5 0 -28 61 -24 64 2 2 28 15 57 30 53 27 57 32 46 60 -8 21 -27 20 -74 -4 -22 -11 -46 -20 -53 -20 -13 0 -45 56 -36 64 2 2 32 18 67 35 62 31 73 46 50 69 -17 17 -23 15 -115 -28z"/>
 <path d="M2623 3344 c-6 -3 -38 -70 -69 -150 -53 -132 -56 -146 -42 -160 32 -32 51 -9 106 129 55 141 61 171 36 181 -9 3 -16 6 -17 5 -1 0 -7 -3 -14 -5z"/>
 <path d="M2781 3271 c-13 -8 -12 -29 2 -157 9 -82 14 -150 13 -152 -2 -1 -31 14 -65 34 -58 35 -63 36 -79 20 -24 -24 -9 -41 89 -103 83 -52 123 -64 131 -40 3 6 -2 78 -11 159 l-17 147 41 -25 c85 -53 104 -60 121 -43 8 9 12 22 9 31 -5 12 -201 138 -215 138 -3 0 -11 -4 -19 -9z"/>
 <path d="M1030 3190 c-11 -7 -16 -33 -18 -100 -4 -84 -5 -90 -25 -90 -13 0 -37 17 -59 42 -31 37 -40 41 -55 32 -10 -7 -18 -20 -17 -31 0 -11 38 -72 85 -136 71 -99 88 -116 112 -117 38 0 36 34 -4 89 -17 24 -28 45 -26 48 3 2 48 -1 100 -8 107 -14 130 -10 125 23 -3 21 -12 24 -83 35 -44 6 -81 12 -83 12 -2 1 -2 44 0 96 2 77 0 98 -12 105 -19 12 -21 12 -40 0z"/>
 <path d="M3092 3058 c-5 -7 -15 -65 -21 -128 -7 -63 -14 -127 -17 -143 l-6 -27 -51 45 c-55 48 -73 52 -91 22 -10 -16 0 -30 74 -98 125 -117 128 -114 151 114 l11 118 58 -56 c32 -30 62 -55 67 -55 14 0 33 23 33 40 0 16 -171 180 -188 180 -5 0 -14 -6 -20 -12z"/>
 <path d="M1766 2975 c-293 -55 -569 -217 -755 -441 -131 -159 -214 -318 -269 -522 -24 -90 -26 -113 -26 -307 -1 -187 2 -220 22 -300 122 -482 472 -836 950 -962 183 -48 527 -42 655 12 20 8 37 18 37 21 0 3 -86 289 -191 636 -105 346 -189 631 -187 633 1 1 287 -54 635 -123 348 -69 636 -123 640 -118 4 4 8 96 8 204 -1 170 -4 209 -23 287 -121 481 -471 836 -950 962 -84 22 -122 26 -282 29 -134 2 -207 -1 -264 -11z m453 -51 c490 -87 882 -462 996 -951 22 -92 35 -268 27 -348 l-7 -71 -40 8 -41 8 0 123 c-1 142 -15 237 -55 362 -184 577 -796 915 -1383 765 -618 -158 -994 -788 -836 -1404 105 -411 424 -731 834 -836 161 -41 332 -46 517 -14 34 6 37 4 48 -26 6 -18 11 -37 11 -41 0 -13 -68 -28 -183 -38 -361 -34 -734 104 -993 367 -483 491 -476 1272 14 1758 288 285 689 409 1091 338z m-99 -125 c134 -16 236 -46 355 -103 327 -157 553 -454 616 -806 12 -72 19 -293 9 -303 -4 -4 -1019 193 -1155 223 -23 5 -45 -1 -45 -13 0 -7 42 -152 94 -323 l94 -309 -29 -23 c-41 -33 -59 -73 -59 -129 0 -82 58 -143 137 -143 31 0 43 -4 47 -17 2 -10 19 -65 36 -121 17 -57 30 -106 27 -108 -2 -2 -26 -8 -53 -13 -332 -62 -689 43 -948 279 -106 98 -206 240 -265 380 -169 397 -87 859 209 1184 231 252 595 387 930 345z m10 -1771 c13 -46 25 -89 28 -95 8 -23 -45 -14 -76 12 -33 28 -45 67 -30 104 10 27 37 61 48 61 3 0 17 -37 30 -82z"/>
 <path d="M1920 2575 c0 -20 5 -25 25 -25 20 0 25 5 25 25 0 20 -5 25 -25 25 -20 0 -25 -5 -25 -25z"/>
 <path d="M1924 2526 c-13 -33 1 -61 31 -66 25 -4 30 -10 30 -35 0 -24 -5 -31 -23 -33 -13 -2 -30 2 -37 8 -20 16 -45 5 -45 -19 0 -46 95 -57 135 -16 32 31 34 87 5 113 -11 9 -31 27 -44 40 -27 25 -44 28 -52 8z"/>
 <path d="M2350 2412 c-38 -20 -80 -89 -80 -132 0 -43 42 -112 80 -132 101 -53 224 19 224 130 0 86 -53 143 -138 149 -37 3 -61 -1 -86 -15z m142 -61 c27 -24 33 -36 33 -71 0 -35 -6 -47 -33 -71 -46 -42 -93 -40 -138 5 -94 94 38 226 138 137z"/>
 <path d="M1466 2262 c-96 -66 -88 -209 14 -263 43 -23 77 -24 130 -3 99 40 120 172 40 249 -26 24 -40 30 -93 33 -49 2 -68 -1 -91 -16z m118 -36 c74 -31 88 -106 32 -162 -38 -38 -70 -43 -116 -19 -36 19 -50 43 -50 88 0 38 30 84 64 97 29 12 32 12 70 -4z"/>
 <path d="M2490 1995 c0 -20 5 -25 25 -25 20 0 25 5 25 25 0 20 -5 25 -25 25 -20 0 -25 -5 -25 -25z"/>
 <path d="M1220 1985 c0 -20 5 -25 25 -25 20 0 25 5 25 25 0 20 -5 25 -25 25 -20 0 -25 -5 -25 -25z"/>
 <path d="M2494 1946 c-13 -33 1 -61 31 -66 25 -4 30 -10 30 -35 0 -24 -5 -31 -23 -33 -13 -2 -30 2 -37 8 -20 16 -45 5 -45 -19 0 -46 95 -57 135 -16 32 31 34 87 5 113 -11 9 -31 27 -44 40 -27 25 -44 28 -52 8z"/>
 <path d="M1224 1936 c-13 -33 1 -61 31 -66 25 -4 30 -10 30 -35 0 -24 -5 -31 -23 -33 -13 -2 -30 2 -37 8 -20 16 -45 5 -45 -19 0 -46 95 -57 135 -16 32 31 34 87 5 113 -11 9 -31 27 -44 40 -27 25 -44 28 -52 8z"/>
 <path d="M1620 1695 c0 -20 5 -25 25 -25 20 0 25 5 25 25 0 20 -5 25 -25 25 -20 0 -25 -5 -25 -25z"/>
 <path d="M1624 1646 c-13 -33 1 -61 31 -66 25 -4 30 -10 30 -35 0 -24 -5 -31 -23 -33 -13 -2 -30 2 -37 8 -20 16 -45 5 -45 -19 0 -46 95 -57 135 -16 32 31 34 87 5 113 -11 9 -31 27 -44 40 -27 25 -44 28 -52 8z"/>
 <path d="M1370 1292 c-102 -51 -110 -200 -14 -263 39 -26 119 -25 161 1 160 97 21 347 -147 262z m136 -66 c49 -49 44 -116 -12 -152 -90 -60 -200 50 -140 140 36 56 103 61 152 12z"/>
 <path d="M682 2893 c-34 -37 -62 -75 -62 -83 0 -17 214 -213 238 -219 19 -4 43 26 35 45 -3 7 -46 51 -97 97 l-92 83 43 50 c47 53 53 87 17 92 -16 2 -38 -15 -82 -65z"/>
 <path d="M3348 2793 c-40 -46 -178 -265 -178 -282 0 -10 7 -22 16 -25 22 -8 326 53 343 69 27 26 5 47 -45 44 -47 -3 -47 -3 -84 51 l-38 55 21 36 c31 54 3 95 -35 52z m12 -205 c0 -7 -12 -11 -63 -22 -31 -7 -31 -6 6 48 l20 28 18 -23 c10 -13 19 -27 19 -31z"/>
 <path d="M517 2683 c-4 -3 -7 -16 -7 -28 0 -17 28 -41 123 -104 67 -44 130 -81 139 -81 22 0 41 26 31 43 -10 19 -249 177 -267 177 -7 0 -16 -3 -19 -7z"/>
 <path d="M374 2415 c-9 -23 -5 -28 106 -149 85 -93 110 -115 130 -113 45 4 31 40 -54 132 l-79 87 121 -3 c129 -3 149 3 137 40 -6 20 -12 21 -181 21 -144 0 -176 -3 -180 -15z"/>
 <path d="M3550 2411 c-15 -29 17 -63 48 -51 22 9 27 25 16 54 -9 22 -51 20 -64 -3z"/>
 <path d="M3472 2384 c-32 -14 -33 -16 -27 -58 5 -33 3 -47 -10 -59 -41 -41 -98 -2 -93 63 4 39 -21 61 -46 41 -20 -17 -21 -92 -1 -130 50 -97 215 -61 215 47 0 26 5 42 15 46 18 7 20 37 3 54 -14 14 -14 14 -56 -4z"/>
 <path d="M2110 1623 c0 -15 100 -335 222 -710 166 -509 227 -685 240 -689 9 -3 58 9 107 25 389 130 702 450 820 839 29 92 67 280 60 286 -6 5 -1413 276 -1431 276 -13 0 -18 -8 -18 -27z m652 -168 c310 -64 571 -118 581 -121 22 -7 22 -22 -4 -124 -80 -314 -292 -580 -579 -724 -107 -53 -197 -84 -209 -70 -5 5 -25 58 -45 119 l-36 110 34 30 c45 39 56 64 56 122 0 84 -58 143 -140 143 l-45 0 -99 303 c-54 166 -101 308 -103 315 -3 6 2 12 10 12 9 0 269 -52 579 -115z m730 -154 c11 -10 -27 -169 -64 -268 -127 -337 -407 -610 -749 -731 l-86 -30 -12 37 c-6 21 -11 41 -11 43 0 3 35 18 78 33 387 136 677 472 753 873 l12 62 36 -6 c20 -4 39 -9 43 -13z m-1010 -439 c41 -41 41 -99 1 -140 l-27 -26 -31 94 c-18 52 -30 99 -28 103 9 15 57 -3 85 -31z"/>
 <path d="M2770 1368 c-114 -58 -112 -209 2 -266 60 -30 114 -23 164 20 84 74 61 211 -43 254 -45 19 -72 17 -123 -8z m139 -63 c38 -38 37 -107 -2 -141 -38 -33 -68 -38 -111 -20 -75 31 -82 134 -12 177 40 25 91 19 125 -16z"/>
 <path d="M2750 895 c0 -20 5 -25 25 -25 20 0 25 5 25 25 0 20 -5 25 -25 25 -20 0 -25 -5 -25 -25z"/>
 <path d="M2754 846 c-13 -33 1 -61 31 -66 25 -4 30 -10 30 -35 0 -24 -5 -31 -23 -33 -13 -2 -30 2 -37 8 -20 16 -45 5 -45 -19 0 -46 95 -57 135 -16 32 31 34 87 5 113 -11 9 -31 27 -44 40 -27 25 -44 28 -52 8z"/>
 </g>

</svg>